<svg viewBox="0 0 1200 630" xmlns="http://www.w3.org/2000/svg">
  <rect width="1200" height="630" fill="#0f172a"/>
  <line x1="0" y1="157" x2="1200" y2="157" stroke="#14b8a6" stroke-opacity="0.1" stroke-width="1"/>
  <line x1="0" y1="314" x2="1200" y2="314" stroke="#14b8a6" stroke-opacity="0.1" stroke-width="1"/>
  <line x1="0" y1="471" x2="1200" y2="471" stroke="#14b8a6" stroke-opacity="0.1" stroke-width="1"/>
  <text x="60" y="210" font-family="ui-monospace, SFMono-Regular, SF Mono, Menlo, Consolas, monospace" font-size="16" fill="#94a3b8" letter-spacing="3">EMBEDDED · STM32</text>
  <text x="60" y="290" font-family="ui-monospace, SFMono-Regular, SF Mono, Menlo, Consolas, monospace" font-size="76" font-weight="800" fill="#f1f5f9">DEBUGGING MY</text>
  <text x="60" y="375" font-family="ui-monospace, SFMono-Regular, SF Mono, Menlo, Consolas, monospace" font-size="76" font-weight="800" fill="#f1f5f9">FIRST GPIO</text>
  <text x="60" y="430" font-family="ui-monospace, SFMono-Regular, SF Mono, Menlo, Consolas, monospace" font-size="19" fill="#64748b">Stepping through registers, one bit at a time</text>
  <rect x="60" y="450" width="260" height="3" rx="1.5" fill="url(#accentGrad)"/>
  <defs>
    <linearGradient id="accentGrad" x1="0" y1="0" x2="1" y2="0">
      <stop offset="0%" stop-color="#14b8a6"/>
      <stop offset="100%" stop-color="#0d9488"/>
    </linearGradient>
    <linearGradient id="chipGrad" x1="0" y1="0" x2="0" y2="1">
      <stop offset="0%" stop-color="#1e293b"/>
      <stop offset="100%" stop-color="#0f172a"/>
    </linearGradient>
  </defs>
  <g transform="translate(780, 115)">
    <rect x="40" y="40" width="260" height="260" rx="8" fill="url(#chipGrad)" stroke="#14b8a6" stroke-width="1.5" stroke-opacity="0.6"/>
    <rect x="65" y="65" width="210" height="210" rx="4" fill="#0f172a" stroke="#14b8a6" stroke-width="0.5" stroke-opacity="0.3"/>
    <text x="170" y="165" font-family="ui-monospace, SFMono-Regular, SF Mono, Menlo, Consolas, monospace" font-size="22" fill="#14b8a6" text-anchor="middle" font-weight="700">STM32</text>
    <text x="170" y="190" font-family="ui-monospace, SFMono-Regular, SF Mono, Menlo, Consolas, monospace" font-size="11" fill="#64748b" text-anchor="middle">GPIOA</text>
    <circle cx="170" cy="130" r="8" fill="none" stroke="#14b8a6" stroke-width="1" stroke-opacity="0.5"/>
    <circle cx="170" cy="130" r="3" fill="#14b8a6"/>
    <line x1="70" y1="20" x2="70" y2="40" stroke="#14b8a6" stroke-width="2" stroke-opacity="0.5"/>
    <line x1="110" y1="20" x2="110" y2="40" stroke="#14b8a6" stroke-width="2" stroke-opacity="0.5"/>
    <line x1="150" y1="20" x2="150" y2="40" stroke="#14b8a6" stroke-width="2" stroke-opacity="0.5"/>
    <line x1="190" y1="20" x2="190" y2="40" stroke="#14b8a6" stroke-width="2" stroke-opacity="0.5"/>
    <line x1="230" y1="20" x2="230" y2="40" stroke="#14b8a6" stroke-width="2" stroke-opacity="0.5"/>
    <line x1="270" y1="20" x2="270" y2="40" stroke="#14b8a6" stroke-width="2" stroke-opacity="0.5"/>
    <line x1="70" y1="300" x2="70" y2="320" stroke="#14b8a6" stroke-width="2" stroke-opacity="0.5"/>
    <line x1="110" y1="300" x2="110" y2="320" stroke="#14b8a6" stroke-width="2" stroke-opacity="0.5"/>
    <line x1="150" y1="300" x2="150" y2="320" stroke="#14b8a6" stroke-width="2" stroke-opacity="0.5"/>
    <line x1="190" y1="300" x2="190" y2="320" stroke="#14b8a6" stroke-width="2" stroke-opacity="0.5"/>
    <line x1="230" y1="300" x2="230" y2="320" stroke="#14b8a6" stroke-width="2" stroke-opacity="0.5"/>
    <line x1="270" y1="300" x2="270" y2="320" stroke="#14b8a6" stroke-width="2" stroke-opacity="0.5"/>
    <line x1="20" y1="90" x2="40" y2="90" stroke="#14b8a6" stroke-width="2" stroke-opacity="0.5"/>
    <line x1="20" y1="130" x2="40" y2="130" stroke="#14b8a6" stroke-width="2" stroke-opacity="0.5"/>
    <line x1="20" y1="170" x2="40" y2="170" stroke="#14b8a6" stroke-width="2" stroke-opacity="0.5"/>
    <line x1="20" y1="210" x2="40" y2="210" stroke="#14b8a6" stroke-width="2" stroke-opacity="0.5"/>
    <line x1="20" y1="250" x2="40" y2="250" stroke="#14b8a6" stroke-width="2" stroke-opacity="0.5"/>
    <line x1="300" y1="90" x2="320" y2="90" stroke="#14b8a6" stroke-width="2" stroke-opacity="0.5"/>
    <line x1="300" y1="130" x2="320" y2="130" stroke="#14b8a6" stroke-width="2" stroke-opacity="0.5"/>
    <line x1="300" y1="170" x2="320" y2="170" stroke="#14b8a6" stroke-width="2" stroke-opacity="0.5"/>
    <line x1="300" y1="210" x2="320" y2="210" stroke="#14b8a6" stroke-width="2" stroke-opacity="0.5"/>
    <line x1="300" y1="250" x2="320" y2="250" stroke="#14b8a6" stroke-width="2" stroke-opacity="0.5"/>
  </g>
  <g transform="translate(760, 440)">
    <rect x="0" y="0" width="300" height="40" rx="4" fill="#1e293b" stroke="#14b8a6" stroke-width="0.5" stroke-opacity="0.3"/>
    <text x="12" y="27" font-family="ui-monospace, SFMono-Regular, SF Mono, Menlo, Consolas, monospace" font-size="15" fill="#94a3b8">MODER &amp;=</text>
    <text x="148" y="27" font-family="ui-monospace, SFMono-Regular, SF Mono, Menlo, Consolas, monospace" font-size="15" fill="#ef4444" text-decoration="line-through">-</text>
    <text x="163" y="27" font-family="ui-monospace, SFMono-Regular, SF Mono, Menlo, Consolas, monospace" font-size="15" fill="#14b8a6">~</text>
    <text x="178" y="27" font-family="ui-monospace, SFMono-Regular, SF Mono, Menlo, Consolas, monospace" font-size="15" fill="#94a3b8">(1&lt;&lt;11)</text>
  </g>
  <circle cx="760" cy="135" r="4" fill="#14b8a6" fill-opacity="0.6"/>
  <circle cx="764" cy="135" r="4" fill="#14b8a6" fill-opacity="0.4"/>
  <circle cx="768" cy="135" r="4" fill="#14b8a6" fill-opacity="0.2"/>
</svg>