<svg viewBox="0 0 1200 630" xmlns="http://www.w3.org/2000/svg">
  <rect width="1200" height="630" fill="#0f172a"/>
  <line x1="60" y1="157" x2="1140" y2="157" stroke="#14b8a6" stroke-opacity="0.1" stroke-width="1"/>
  <line x1="60" y1="314" x2="1140" y2="314" stroke="#14b8a6" stroke-opacity="0.1" stroke-width="1"/>
  <line x1="60" y1="471" x2="1140" y2="471" stroke="#14b8a6" stroke-opacity="0.1" stroke-width="1"/>
  <text x="60" y="205" font-family="ui-monospace, SFMono-Regular, SF Mono, Menlo, Consolas, monospace" font-size="16" fill="#94a3b8" letter-spacing="2">EMBEDDED C · CHAPTER 8</text>
  <text x="60" y="290" font-family="ui-monospace, SFMono-Regular, SF Mono, Menlo, Consolas, monospace" font-size="76" font-weight="700" fill="#f1f5f9">SysTick</text>
  <text x="60" y="375" font-family="ui-monospace, SFMono-Regular, SF Mono, Menlo, Consolas, monospace" font-size="76" font-weight="700" fill="#f1f5f9">Timer</text>
  <text x="60" y="420" font-family="ui-monospace, SFMono-Regular, SF Mono, Menlo, Consolas, monospace" font-size="18" fill="#94a3b8">Millisecond delays &amp; button debounce on STM32F446RE</text>
  <rect x="60" y="442" width="260" height="3" rx="1.5" fill="url(#accentGrad)"/>
  <defs>
    <linearGradient id="accentGrad" x1="0" y1="0" x2="1" y2="0">
      <stop offset="0%" stop-color="#14b8a6"/>
      <stop offset="100%" stop-color="#0d9488"/>
    </linearGradient>
    <linearGradient id="ringGrad" x1="0" y1="0" x2="1" y2="1">
      <stop offset="0%" stop-color="#14b8a6"/>
      <stop offset="100%" stop-color="#0d9488"/>
    </linearGradient>
  </defs>
  <g transform="translate(880, 315)">
    <circle cx="0" cy="0" r="160" fill="none" stroke="#1e293b" stroke-width="12"/>
    <circle cx="0" cy="0" r="160" fill="none" stroke="url(#ringGrad)" stroke-width="12" stroke-dasharray="754 1005" stroke-dashoffset="251" stroke-linecap="round"/>
    <circle cx="0" cy="0" r="130" fill="none" stroke="#1e293b" stroke-width="6"/>
    <circle cx="0" cy="0" r="130" fill="none" stroke="#14b8a6" stroke-width="6" stroke-dasharray="540 817" stroke-dashoffset="204" stroke-linecap="round" stroke-opacity="0.4"/>
    <circle cx="0" cy="0" r="4" fill="#14b8a6"/>
    <line x1="0" y1="0" x2="0" y2="-95" stroke="#5eead4" stroke-width="3" stroke-linecap="round"/>
    <line x1="0" y1="-95" x2="55" y2="-75" stroke="#5eead4" stroke-width="3" stroke-linecap="round"/>
    <g stroke="#14b8a6" stroke-opacity="0.3" stroke-width="2">
      <line x1="0" y1="-150" x2="0" y2="-140"/>
      <line x1="75" y1="-130" x2="70" y2="-121"/>
      <line x1="130" y1="-75" x2="121" y2="-70"/>
      <line x1="150" y1="0" x2="140" y2="0"/>
      <line x1="130" y1="75" x2="121" y2="70"/>
      <line x1="75" y1="130" x2="70" y2="121"/>
      <line x1="0" y1="150" x2="0" y2="140"/>
      <line x1="-75" y1="130" x2="-70" y2="121"/>
      <line x1="-130" y1="75" x2="-121" y2="70"/>
      <line x1="-150" y1="0" x2="-140" y2="0"/>
      <line x1="-130" y1="-75" x2="-121" y2="-70"/>
      <line x1="-75" y1="-130" x2="-70" y2="-121"/>
    </g>
    <text x="0" y="30" text-anchor="middle" font-family="ui-monospace, SFMono-Regular, SF Mono, Menlo, Consolas, monospace" font-size="28" font-weight="700" fill="#f1f5f9">1 ms</text>
    <text x="0" y="55" text-anchor="middle" font-family="ui-monospace, SFMono-Regular, SF Mono, Menlo, Consolas, monospace" font-size="14" fill="#64748b">16000 cycles</text>
  </g>
  <g transform="translate(680, 480)">
    <rect x="0" y="0" width="8" height="50" rx="2" fill="#14b8a6" fill-opacity="0.15"/>
    <rect x="0" y="15" width="8" height="35" rx="2" fill="#14b8a6" fill-opacity="0.5"/>
    <rect x="18" y="0" width="8" height="50" rx="2" fill="#14b8a6" fill-opacity="0.15"/>
    <rect x="18" y="25" width="8" height="25" rx="2" fill="#14b8a6" fill-opacity="0.5"/>
    <rect x="36" y="0" width="8" height="50" rx="2" fill="#14b8a6" fill-opacity="0.15"/>
    <rect x="36" y="8" width="8" height="42" rx="2" fill="#14b8a6" fill-opacity="0.5"/>
    <rect x="54" y="0" width="8" height="50" rx="2" fill="#14b8a6" fill-opacity="0.15"/>
    <rect x="54" y="20" width="8" height="30" rx="2" fill="#14b8a6" fill-opacity="0.5"/>
    <rect x="72" y="0" width="8" height="50" rx="2" fill="#14b8a6" fill-opacity="0.15"/>
    <rect x="72" y="35" width="8" height="15" rx="2" fill="#14b8a6" fill-opacity="0.5"/>
  </g>
</svg>